# xmcd CD database file
#
# Track frame offsets:
#	150
#	19976
#	40801
#	61068
#	81813
#	102436
#	122687
#	143687
#	165692
#	183533
#	203774
#	220269
#
# Disc length: 3184 seconds
#
# Revision: 1
# Processed by: cddbd v1.5.2PL0 Copyright (c) Steve Scherf et al.
# Submitted via: CDex 1.51
#
DISCID=a40c6e0c
DTITLE=David Arkenstone - The Seasons Of The Great Smoky Mountains
DYEAR=2010
DGENRE=New Age
TTITLE0=Forest Morning
TTITLE1=Warm Hearts
TTITLE2=The Turning
TTITLE3=Dreamtime
TTITLE4=The Promise
TTITLE5=Nature's Rhythm
TTITLE6=Cascades Of Color
TTITLE7=Winter Whispers
TTITLE8=Emerald Dream
TTITLE9=Green And Gold
TTITLE10=Autumn's Song
TTITLE11=White Wonders
EXTD=YEAR: 2010
EXTT0=
EXTT1=
EXTT2=
EXTT3=
EXTT4=
EXTT5=
EXTT6=
EXTT7=
EXTT8=
EXTT9=
EXTT10=
EXTT11=
PLAYORDER=
